<?xml version="1.0" encoding="UTF-8"?>
<svg width="493px" height="95px" viewBox="0 0 493 95" version="1.1" xmlns="http://www.w3.org/2000/svg" xmlns:xlink="http://www.w3.org/1999/xlink">
    <!-- Generator: Sketch 64 (93537) - https://sketch.com -->
    <title>Group</title>
    <desc>Created with Sketch.</desc>
    <g id="Page-1" stroke="none" stroke-width="1" fill="none" fill-rule="evenodd">
        <g id="Artboard-Copy" transform="translate(-200.000000, -725.000000)">
            <g id="Group-10" transform="translate(200.000000, 27.000000)">
                <g id="Group" transform="translate(0.000000, 698.000000)">
                    <rect id="Rectangle" fill="#382EFF" x="0" y="0" width="493" height="95"></rect>
                    <path d="M178.215273,59 L178.215273,53.951 L166.434273,53.951 L166.434273,35.9 L160.164273,35.9 L160.164273,59 L178.215273,59 Z M188.346273,59.561 C193.461273,59.561 195.837273,57.119 196.926273,54.644 L191.679273,52.961 C191.085273,54.38 190.161273,55.535 188.346273,55.535 C186.597273,55.535 185.343273,54.479 185.277273,51.938 L196.794273,51.938 C197.355273,46.163 194.319273,41.906 188.313273,41.906 C183.231273,41.906 179.568273,45.47 179.568273,50.651 C179.568273,56.195 182.934273,59.561 188.346273,59.561 Z M191.184273,48.638 L185.409273,48.638 C185.640273,46.691 186.696273,45.701 188.346273,45.701 C190.029273,45.701 191.085273,46.79 191.184273,48.638 Z M212.106273,59 L212.106273,54.644 L208.641273,54.644 C207.750273,54.644 207.354273,54.215 207.354273,53.357 L207.354273,46.46 L211.314273,46.46 L211.314273,42.434 L207.354273,42.434 L207.354273,37.352 L201.645273,37.352 L201.645273,42.434 L198.312273,42.434 L198.312273,46.46 L201.645273,46.46 L201.645273,54.248 C201.645273,57.185 203.295273,59 206.298273,59 L212.106273,59 Z M217.122273,46.922 L220.488273,41.444 L220.488273,35.9 L214.449273,35.9 L214.449273,41.444 L217.782273,41.444 L214.383273,46.922 L217.122273,46.922 Z M230.520273,59.495 C235.899273,59.495 238.737273,57.284 238.737273,53.951 C238.737273,50.882 236.295273,49.298 232.797273,48.671 L230.454273,48.275 C228.837273,47.978 228.276273,47.615 228.276273,46.823 C228.276273,46.031 228.903273,45.437 230.256273,45.437 C231.708273,45.437 232.731273,46.262 233.127273,47.516 L238.110273,46.031 C237.516273,44.216 235.470273,41.906 230.553273,41.906 C225.636273,41.906 222.996273,44.183 222.996273,47.252 C222.996273,50.519 225.009273,51.707 228.837273,52.433 L231.015273,52.862 C232.500273,53.126 232.962273,53.687 232.962273,54.413 C232.962273,55.271 232.170273,55.865 230.718273,55.865 C228.144273,55.865 227.616273,54.05 227.550273,53.456 L222.270273,54.545 C222.831273,57.218 225.504273,59.495 230.520273,59.495 Z M260.847273,65.435 C264.411273,65.435 266.853273,63.455 266.853273,60.221 C266.853273,57.515 264.708273,55.172 260.814273,55.172 L253.389273,55.172 C252.498273,55.172 251.838273,55.04 251.838273,54.347 C251.838273,53.852 252.135273,53.522 252.795273,53.225 C253.752273,53.654 255.039273,53.885 256.491273,53.885 C260.847273,53.885 263.355273,51.641 263.850273,48.638 L263.949273,48.275 C264.147273,46.922 264.444273,46.625 265.335273,46.625 L267.513273,46.625 L267.513273,42.434 L266.127273,42.434 C264.246273,42.434 263.421273,42.929 263.223273,45.338 C262.068273,43.226 259.560273,41.906 256.326273,41.906 C252.003273,41.906 248.637273,44.15 248.637273,48.044 C248.637273,49.661 249.363273,51.08 250.419273,51.938 C248.835273,52.763 247.647273,54.083 247.647273,55.7 C247.647273,57.185 248.274273,58.109 249.396273,58.769 C248.241273,59.429 247.317273,60.617 247.317273,62.069 C247.317273,64.181 248.868273,65.435 252.102273,65.435 L260.847273,65.435 Z M256.392273,50.717 C254.940273,50.717 253.983273,49.76 253.983273,48.044 C253.983273,46.328 254.940273,45.305 256.392273,45.305 C257.844273,45.305 258.867273,46.328 258.867273,48.044 C258.867273,49.76 257.844273,50.717 256.392273,50.717 Z M259.626273,61.64 L253.290273,61.64 C252.300273,61.64 251.739273,61.145 251.739273,60.287 C251.739273,59.759 252.069273,59.264 252.432273,59 L259.626273,59 C260.847273,59 261.342273,59.594 261.342273,60.287 C261.342273,61.112 260.847273,61.64 259.626273,61.64 Z M277.677273,59.561 C282.792273,59.561 285.168273,57.119 286.257273,54.644 L281.010273,52.961 C280.416273,54.38 279.492273,55.535 277.677273,55.535 C275.928273,55.535 274.674273,54.479 274.608273,51.938 L286.125273,51.938 C286.686273,46.163 283.650273,41.906 277.644273,41.906 C272.562273,41.906 268.899273,45.47 268.899273,50.651 C268.899273,56.195 272.265273,59.561 277.677273,59.561 Z M280.515273,48.638 L274.740273,48.638 C274.971273,46.691 276.027273,45.701 277.677273,45.701 C279.360273,45.701 280.416273,46.79 280.515273,48.638 Z M301.437273,59 L301.437273,54.644 L297.972273,54.644 C297.081273,54.644 296.685273,54.215 296.685273,53.357 L296.685273,46.46 L300.645273,46.46 L300.645273,42.434 L296.685273,42.434 L296.685273,37.352 L290.976273,37.352 L290.976273,42.434 L287.643273,42.434 L287.643273,46.46 L290.976273,46.46 L290.976273,54.248 C290.976273,57.185 292.626273,59 295.629273,59 L301.437273,59 Z M318.036273,59.495 C323.415273,59.495 326.253273,57.284 326.253273,53.951 C326.253273,50.882 323.811273,49.298 320.313273,48.671 L317.970273,48.275 C316.353273,47.978 315.792273,47.615 315.792273,46.823 C315.792273,46.031 316.419273,45.437 317.772273,45.437 C319.224273,45.437 320.247273,46.262 320.643273,47.516 L325.626273,46.031 C325.032273,44.216 322.986273,41.906 318.069273,41.906 C313.152273,41.906 310.512273,44.183 310.512273,47.252 C310.512273,50.519 312.525273,51.707 316.353273,52.433 L318.531273,52.862 C320.016273,53.126 320.478273,53.687 320.478273,54.413 C320.478273,55.271 319.686273,55.865 318.234273,55.865 C315.660273,55.865 315.132273,54.05 315.066273,53.456 L309.786273,54.545 C310.347273,57.218 313.020273,59.495 318.036273,59.495 Z M341.301273,59 L341.301273,54.644 L337.836273,54.644 C336.945273,54.644 336.549273,54.215 336.549273,53.357 L336.549273,46.46 L340.509273,46.46 L340.509273,42.434 L336.549273,42.434 L336.549273,37.352 L330.840273,37.352 L330.840273,42.434 L327.507273,42.434 L327.507273,46.46 L330.840273,46.46 L330.840273,54.248 C330.840273,57.185 332.490273,59 335.493273,59 L341.301273,59 Z M348.429273,59.561 C351.432273,59.561 353.313273,57.911 354.171273,56.591 C354.402273,58.109 355.392273,59 357.471273,59 L361.299273,59 L361.299273,54.875 L360.012273,54.875 C359.220273,54.875 359.088273,54.644 359.088273,53.852 L359.088273,48.44 C359.088273,44.084 356.217273,41.906 351.300273,41.906 C346.218273,41.906 343.149273,44.216 342.786273,47.12 L348.132273,48.011 C348.462273,46.559 349.353273,45.668 351.168273,45.668 C352.785273,45.668 353.511273,46.427 353.511273,47.714 L353.511273,48.308 C347.571273,48.77 343.017273,50.42 343.017273,54.71 C343.017273,57.713 345.162273,59.561 348.429273,59.561 Z M350.508273,55.7 C349.320273,55.7 348.660273,55.106 348.660273,54.116 C348.660273,52.235 350.772273,51.608 353.511273,51.278 L353.511273,52.301 C353.511273,54.611 352.125273,55.7 350.508273,55.7 Z M369.285273,59 L369.285273,52.598 C369.285273,49.034 370.671273,47.549 373.905273,47.549 C374.598273,47.549 375.258273,47.615 376.017273,47.714 L376.017273,42.137 C375.654273,42.071 375.324273,42.038 374.862273,42.038 C371.265273,42.038 369.747273,44.579 369.087273,46.526 L369.087273,42.434 L363.444273,42.434 L363.444273,59 L369.285273,59 Z M390.702273,59 L390.702273,54.644 L387.237273,54.644 C386.346273,54.644 385.950273,54.215 385.950273,53.357 L385.950273,46.46 L389.910273,46.46 L389.910273,42.434 L385.950273,42.434 L385.950273,37.352 L380.241273,37.352 L380.241273,42.434 L376.908273,42.434 L376.908273,46.46 L380.241273,46.46 L380.241273,54.248 C380.241273,57.185 381.891273,59 384.894273,59 L390.702273,59 Z M401.064273,59.561 C406.179273,59.561 408.555273,57.119 409.644273,54.644 L404.397273,52.961 C403.803273,54.38 402.879273,55.535 401.064273,55.535 C399.315273,55.535 398.061273,54.479 397.995273,51.938 L409.512273,51.938 C410.073273,46.163 407.037273,41.906 401.031273,41.906 C395.949273,41.906 392.286273,45.47 392.286273,50.651 C392.286273,56.195 395.652273,59.561 401.064273,59.561 Z M403.902273,48.638 L398.127273,48.638 C398.358273,46.691 399.414273,45.701 401.064273,45.701 C402.747273,45.701 403.803273,46.79 403.902273,48.638 Z M418.785273,59.561 C421.590273,59.561 423.372273,57.911 424.098273,56.822 L424.098273,59 L429.741273,59 L429.741273,35.9 L423.999273,35.9 L423.999273,44.612 C423.174273,43.325 421.359273,41.906 418.785273,41.906 C414.429273,41.906 411.657273,45.47 411.657273,50.717 C411.657273,55.964 414.363273,59.561 418.785273,59.561 Z M420.930273,55.502 C419.082273,55.502 417.663273,54.182 417.663273,50.717 C417.663273,47.219 419.082273,45.932 420.930273,45.932 C422.844273,45.932 424.164273,47.45 424.164273,50.717 C424.164273,53.951 422.844273,55.502 420.930273,55.502 Z M438.422852,52.2485352 L439.212402,39.921875 L439.212402,35.1523438 L434.442871,35.1523438 L434.442871,39.921875 L435.232422,52.2485352 L438.422852,52.2485352 Z M439.212402,59 L439.212402,55.0200195 L434.442871,55.0200195 L434.442871,59 L439.212402,59 Z" id="Let’sgetstarted!" fill="#FFFFFF" fill-rule="nonzero"></path>
                    <path d="M30,45.5924167 C30,51.12775 32.7614484,56.0661667 37.0793783,59.2914167 L37.0793783,66 L43.5491479,62.4501667 C45.2750531,62.92675 47.1038793,63.1864167 48.9992083,63.1864167 C59.4923955,63.1864167 68,55.3109167 68,45.594 C68.0015834,35.8770833 59.4939789,28 49.0007917,28 C38.5076045,28 30,35.8755 30,45.5924167 Z M47.0464088,40.8043478 L52.0258391,46.0240713 L61.3913043,40.8043478 L50.9551821,51.9549201 L46.0950672,46.7367982 L36.6086957,51.9565217 L47.0464088,40.8043478 Z" id="Shape" fill="#FFFFFF" fill-rule="nonzero"></path>
                </g>
            </g>
        </g>
    </g>
</svg>