<?xml version="1.0" encoding="UTF-8"?>
<svg width="197px" height="107px" viewBox="0 0 197 107" version="1.1" xmlns="http://www.w3.org/2000/svg" xmlns:xlink="http://www.w3.org/1999/xlink">
    <!-- Generator: Sketch 64 (93537) - https://sketch.com -->
    <title>Group 7</title>
    <desc>Created with Sketch.</desc>
    <g id="Page-1" stroke="none" stroke-width="1" fill="none" fill-rule="evenodd">
        <g id="Homepage-Copy" transform="translate(-742.000000, -66.000000)" fill="#010101">
            <g id="Group-4" transform="translate(742.000000, 66.000000)">
                <g id="Group-7">
                    <path d="M95,0 C113.225397,-3.34795107e-15 128,14.7746033 128,33 C128,51.2253967 113.225397,66 95,66 C76.7746033,66 62,51.2253967 62,33 C62,14.7746033 76.7746033,3.34795107e-15 95,0 Z M94.6225354,16 C94.3822843,16 94.1887828,16.1934982 94.1887828,16.4337526 L94.1887828,19.3712821 L92.661556,19.3712821 L91.6239341,17.2739634 L91.625234,17.2726635 C91.5187457,17.058387 91.2590028,16.9713771 91.0447362,17.0778654 C90.8317596,17.1830572 90.7434499,17.4428001 90.8499382,17.6570667 L91.8693749,19.7374967 C91.868075,19.7608716 91.868075,19.7829498 91.8693749,19.8063247 L91.8693749,22.7127033 L83.5231194,22.7127033 C83.2880645,22.7191961 83.1010692,22.9100978 83.1010692,23.1451593 L83.1010692,26.1164661 L78.4337494,26.1164661 C78.3181684,26.1164661 78.2090836,26.1619192 78.1272667,26.2424363 C78.0467497,26.3242498 78.0012966,26.4333379 78.0012966,26.5489189 L78.0012966,29.5371144 C78.0012966,29.7760656 78.1947947,29.9682738 78.4337527,29.9682738 L79.6804549,29.9682738 L79.6804549,45.1324948 L78.4337527,45.1324948 C78.1935015,45.1324948 78,45.3272928 78,45.5662474 C78,45.805202 78.1934981,46 78.4337527,46 L110.814098,46 C111.054349,46 111.247837,45.805202 111.247837,45.5662474 C111.247837,45.3272928 111.054353,45.1324948 110.814098,45.1324948 L110.002445,45.1324948 L110.002445,29.9719308 L110.814284,29.9721669 C111.053236,29.9721669 111.24674,29.7786687 111.24674,29.5410074 L111.24674,26.5489222 C111.24674,26.3099709 111.053242,26.1164661 110.814284,26.1164661 L106.15727,26.1164661 L106.15727,23.1451593 C106.15727,22.9062081 105.963772,22.7127033 105.724814,22.7127033 L97.3808856,22.7127033 L97.3808856,19.802435 C97.383482,19.7803567 97.383482,19.7569819 97.3808856,19.7349069 L98.4003222,17.6544768 L98.4016188,17.6544768 C98.5068106,17.4402003 98.4198007,17.1804641 98.2055242,17.0739791 C97.9912477,16.9674908 97.7315114,17.0557972 97.626323,17.2700737 L96.5887011,19.3673924 L95.056288,19.3673924 L95.056288,16.4337526 C95.056288,16.1935015 94.86149,16 94.6225354,16 Z M84.0128473,29.9721669 L84.0128473,45.1327298 L82.2791666,45.1327298 L82.2791666,29.9721669 L84.0128473,29.9721669 Z M88.3437244,29.9721669 L88.3437244,45.1327298 L86.6100437,45.1327298 L86.6100437,29.9721669 L88.3437244,29.9721669 Z M98.7418854,29.9721669 L98.7405556,45.1327298 L90.9421842,45.1327298 L90.9421842,29.9721669 L98.7418854,29.9721669 Z M103.072733,29.9721669 L103.071433,45.1327298 L101.337752,45.1327298 L101.339052,29.9721669 L103.072733,29.9721669 Z M107.40361,29.9721669 L107.40231,45.1327298 L105.668629,45.1327298 L105.669929,29.9721669 L107.40361,29.9721669 Z" id="Combined-Shape"></path>
                    <path d="M8.603,106 L8.603,104.218 C8.603,98.905 7.25,92.008 5.237,86.497 L7.877,85.837 L12.959,106 L19.163,106 L24.245,85.804 L26.885,86.497 C24.872,92.008 23.486,98.905 23.486,104.218 L23.486,106 L31.571,106 L31.571,82.9 L19.328,82.9 L18.404,87.223 C17.777,90.094 17.513,93.196 17.546,101.248 L15.005,101.248 C15.038,93.196 14.939,90.094 14.312,87.223 L13.388,82.9 L0.584,82.9 L0.584,106 L8.603,106 Z M43.352,106.594 C48.665,106.594 51.569,104.68 53.021,101.512 L45.662,99.73 C45.233,100.885 44.54,101.677 43.319,101.677 C42.065,101.677 41.438,100.852 41.438,99.037 L52.724,99.037 C53.45,92.8 50.15,88.741 43.286,88.741 C37.61,88.741 33.716,92.338 33.716,97.552 C33.716,103.36 37.214,106.594 43.352,106.594 Z M45.167,95.737 L41.504,95.737 C41.537,94.12 42.164,93.328 43.352,93.328 C44.507,93.328 45.233,94.285 45.167,95.737 Z M63.713,106.594 C69.026,106.594 71.93,104.68 73.382,101.512 L66.023,99.73 C65.594,100.885 64.901,101.677 63.68,101.677 C62.426,101.677 61.799,100.852 61.799,99.037 L73.085,99.037 C73.811,92.8 70.511,88.741 63.647,88.741 C57.971,88.741 54.077,92.338 54.077,97.552 C54.077,103.36 57.575,106.594 63.713,106.594 Z M65.528,95.737 L61.865,95.737 C61.898,94.12 62.525,93.328 63.713,93.328 C64.868,93.328 65.594,94.285 65.528,95.737 Z M89.09,106 L89.09,100.39 L85.856,100.39 C85.196,100.39 84.866,100.06 84.866,99.4 L84.866,94.285 L88.199,94.285 L88.199,89.335 L84.866,89.335 L84.866,84.385 L77.111,84.385 L77.111,89.335 L74.075,89.335 L74.075,94.285 L77.111,94.285 L77.111,100.39 C77.111,104.086 79.025,106 82.721,106 L89.09,106 Z M109.451,106 C114.863,106 118.031,104.053 118.031,100.555 C118.031,97.024 115.49,95.275 110.144,95.308 L110.144,92.866 C115.061,92.8 117.107,90.919 117.107,87.916 C117.107,84.88 114.236,82.9 109.22,82.9 L96.845,82.9 L96.845,106 L109.451,106 Z M107.669,91.942 L105.029,91.942 L105.029,88.774 L107.669,88.774 C108.692,88.774 109.418,89.467 109.418,90.358 C109.418,91.249 108.692,91.942 107.669,91.942 Z M107.702,100.126 L105.029,100.126 L105.029,96.793 L107.702,96.793 C108.857,96.793 109.616,97.486 109.616,98.476 C109.616,99.433 108.824,100.126 107.702,100.126 Z M128.888,106.594 C134.201,106.594 137.105,104.68 138.557,101.512 L131.198,99.73 C130.769,100.885 130.076,101.677 128.855,101.677 C127.601,101.677 126.974,100.852 126.974,99.037 L138.26,99.037 C138.986,92.8 135.686,88.741 128.822,88.741 C123.146,88.741 119.252,92.338 119.252,97.552 C119.252,103.36 122.75,106.594 128.888,106.594 Z M130.703,95.737 L127.04,95.737 C127.073,94.12 127.7,93.328 128.888,93.328 C130.043,93.328 130.769,94.285 130.703,95.737 Z M148.325,106 L148.325,100.093 C148.325,97.552 149.513,95.803 152.549,95.803 C153.44,95.803 154.232,95.902 155.222,96.1 L155.222,89.005 C154.628,88.873 154.166,88.807 153.308,88.807 C150.833,88.807 149.282,90.655 148.82,94.879 L146.015,94.879 C146.972,93.031 147.269,91.282 147.269,89.335 L140.24,89.335 L140.24,106 L148.325,106 Z M164.594,106 L164.594,82.9 L156.74,82.9 L156.74,106 L164.594,106 Z M175.055,87.685 L175.055,81.91 L166.937,81.91 L166.937,87.685 L175.055,87.685 Z M175.055,106 L175.055,89.335 L166.97,89.335 L166.97,106 L175.055,106 Z M185.483,106 L185.483,96.067 C185.483,94.945 186.077,94.384 186.869,94.384 C187.694,94.384 188.321,94.945 188.321,96.067 L188.321,106 L196.373,106 L196.373,94.846 C196.373,90.589 193.964,88.774 191.027,88.774 C188.222,88.774 186.77,90.655 186.143,93.163 L183.437,93.163 C184.229,91.942 184.625,90.655 184.724,89.335 L177.431,89.335 L177.431,106 L185.483,106 Z" id="MeetBerlin" fill-rule="nonzero"></path>
                </g>
            </g>
        </g>
    </g>
</svg>